# xmcd
#
# Track frame offsets:
#	150
#	21831
#	36778
#	57271
#	78007
#	94547
#	110720
#	128850
#	146399
#	168476
#	183753
#	202425
#	216982
#
# Disc length: 3125 seconds
#
# Revision: 0
# Processed by: cddbd v1.5.1PL0 Copyright (c) Steve Scherf et al.
# Submitted via: EasyCDDAExtractor 5.0.4.1
#
DISCID=b50c330d
DTITLE=Lempesis - Celemprities
DYEAR=1900
DGENRE=
TTITLE0=Celemprities
TTITLE1=O Anthropos Sou
TTITLE2=5-0
TTITLE3=Poios
TTITLE4=Tose Xiliades Giati
TTITLE5=Matia Sto Xroma Toyu Vithou
TTITLE6=Gennithika Na Tyranno
TTITLE7=To Paramithi
TTITLE8=Kalokairia
TTITLE9=Einstain
TTITLE10=Mono Gia Sena
TTITLE11=To Fulakto
TTITLE12=Devil Fantasy
EXTD=
EXTT0=
EXTT1=
EXTT2=
EXTT3=
EXTT4=
EXTT5=
EXTT6=
EXTT7=
EXTT8=
EXTT9=
EXTT10=
EXTT11=
EXTT12=
PLAYORDER=
